<?xml version="1.0" encoding="utf-8"?>
<!-- Generator: Adobe Illustrator 24.0.0, SVG Export Plug-In . SVG Version: 6.00 Build 0)  -->
<svg version="1.1" xmlns="http://www.w3.org/2000/svg" xmlns:xlink="http://www.w3.org/1999/xlink" x="0px" y="0px"
	 viewBox="0 0 256 256" enable-background="new 0 0 256 256" xml:space="preserve">
<g id="Layer_1">
</g>
<g id="Layer_2">
</g>
<g id="Layer_3">
</g>
<g id="Layer_4">
</g>
<g id="Layer_5">
</g>
<g id="Layer_6">
</g>
<g id="Layer_7">
</g>
<g id="Layer_8">
</g>
<g id="Layer_9">
</g>
<g id="Layer_10">
</g>
<g id="Layer_11">
</g>
<g id="Layer_12">
	<g>
		<g>
			<g>
				<path fill="#C49A6C" d="M251.1,199.395c-59.395-23.385-124.234,19.654-171.823,19.654c-34.688,0-59.194-22.912-70.221-35.778
					c-2.254-2.63-6.556-1.042-6.556,2.422v64.082c0,2.058,1.668,3.726,3.726,3.726h243.548c2.058,0,3.726-1.668,3.726-3.726v-46.895
					C253.5,201.332,252.539,199.961,251.1,199.395z"/>
			</g>
		</g>
		<g>
			<g>
				<path fill="#B26E2B" d="M251.1,199.395c-59.395-23.385-124.234,19.654-171.823,19.654c-34.688,0-59.194-22.912-70.221-35.778
					c-2.254-2.63-6.556-1.042-6.556,2.422v15.226c14.82,15.553,43.471,34.752,73.532,34.752c53.799,0,132.503-46.009,177.467-16.575
					v-16.216C253.5,201.332,252.539,199.961,251.1,199.395z"/>
			</g>
		</g>
		<g>
			<g>
				<path fill="#B26E2B" d="M204.058,157.822v34.886c4.762-0.295,9.527-0.355,14.284-0.129v-34.757H204.058z"/>
			</g>
		</g>
		<g>
			<g>
				<path d="M218.342,156.667c-1.381,0-2.5,1.119-2.5,2.5v32.25c0,1.381,1.119,2.5,2.5,2.5s2.5-1.119,2.5-2.5v-32.25
					C220.842,157.786,219.723,156.667,218.342,156.667z"/>
			</g>
		</g>
		<g>
			<g>
				<path d="M204.058,156.5c-1.381,0-2.5,1.119-2.5,2.5v33c0,1.381,1.119,2.5,2.5,2.5s2.5-1.119,2.5-2.5v-33
					C206.558,157.619,205.439,156.5,204.058,156.5z"/>
			</g>
		</g>
		<g>
			<g>
				<path fill="#B2E26D" d="M235.197,87.568l-20.341-27.153c-1.827-2.439-5.485-2.439-7.312,0l-20.341,27.153
					c-2.256,3.012-0.107,7.306,3.656,7.306h40.682C235.304,94.874,237.453,90.579,235.197,87.568z"/>
			</g>
		</g>
		<g>
			<g>
				<path fill="#87D147" d="M242.515,118.017l-17.337-23.143h-27.955l-16.902,22.563l17.113-2.694
					c3.521-0.555,6.825,1.85,7.379,5.371c0.307,1.947-0.297,3.824-1.488,5.21h35.535
					C242.622,125.324,244.771,121.029,242.515,118.017z"/>
			</g>
		</g>
		<g>
			<g>
				<path fill="#87D147" d="M249.978,150.515l-18.872-25.192h-27.782c-0.998,1.161-2.355,1.929-3.883,2.169l-11.079,1.744
					l-11.923,15.917c1.86,2.878,1.931,7.115-0.981,10.605l-1.374,1.61c0.59,0.285,1.26,0.453,1.994,0.453h70.244
					C250.085,157.822,252.234,153.527,249.978,150.515z"/>
			</g>
		</g>
		<g>
			<g>
				<g>
					<g>
						<path d="M237.198,86.068l-20.341-27.153c-1.348-1.799-3.41-2.831-5.657-2.83c-2.248,0-4.309,1.032-5.656,2.831v0
							l-20.341,27.154c-1.615,2.156-1.869,4.991-0.664,7.4c1.205,2.409,3.627,3.905,6.32,3.905h40.682
							c2.693,0,5.115-1.496,6.32-3.905C239.067,91.06,238.812,88.225,237.198,86.068z M233.39,91.231
							c-0.172,0.344-0.696,1.143-1.849,1.143h-40.682c-1.153,0-1.677-0.799-1.849-1.143c-0.172-0.343-0.497-1.242,0.194-2.165
							l20.341-27.153v0c0.394-0.526,0.997-0.828,1.654-0.828c0.658,0,1.261,0.302,1.655,0.828l20.341,27.153
							C233.887,89.989,233.562,90.888,233.39,91.231z"/>
					</g>
				</g>
			</g>
		</g>
		<g>
			<g>
				<path d="M198.491,93.181c-1.106-0.827-2.672-0.603-3.5,0.502l-16.422,21.922c-0.828,1.105-0.603,2.672,0.502,3.5
					c0.45,0.336,0.976,0.499,1.497,0.499c0.761,0,1.512-0.346,2.003-1.001l16.422-21.922
					C199.82,95.576,199.596,94.009,198.491,93.181z"/>
			</g>
		</g>
		<g>
			<g>
				<path d="M244.516,116.518L227.557,93.88c-0.828-1.104-2.394-1.329-3.5-0.502c-1.105,0.828-1.33,2.395-0.502,3.5l16.959,22.638
					c0.691,0.923,0.366,1.822,0.194,2.166c-0.172,0.344-0.696,1.143-1.849,1.143h-35.046c-1.381,0-2.5,1.119-2.5,2.5
					s1.119,2.5,2.5,2.5h35.046c2.693,0,5.115-1.496,6.32-3.905C246.385,121.51,246.13,118.674,244.516,116.518z"/>
			</g>
		</g>
		<g>
			<g>
				<path d="M189.388,127.869c-1.106-0.827-2.672-0.603-3.5,0.502l-10.942,14.606c-0.828,1.105-0.603,2.672,0.502,3.5
					c0.45,0.336,0.976,0.499,1.497,0.499c0.761,0,1.512-0.346,2.003-1.001l10.942-14.606
					C190.717,130.264,190.493,128.697,189.388,127.869z"/>
			</g>
		</g>
		<g>
			<g>
				<path d="M251.979,149.017l-18.244-24.354c-0.828-1.104-2.394-1.329-3.5-0.502c-1.105,0.828-1.33,2.395-0.502,3.5l18.244,24.354
					c0.691,0.923,0.367,1.821,0.195,2.165c-0.172,0.344-0.696,1.143-1.85,1.143h-70.244c-0.09,0-0.178-0.005-0.264-0.015
					c-1.372-0.155-2.613,0.823-2.773,2.194c-0.16,1.372,0.823,2.613,2.194,2.773c0.274,0.032,0.556,0.048,0.843,0.048h70.244
					c2.694,0,5.116-1.497,6.321-3.905C253.848,154.008,253.593,151.172,251.979,149.017z"/>
			</g>
		</g>
		<g>
			<g>
				<path fill="#F5C84C" d="M217.227,25.025c-4.5-0.8-8-4.3-8.9-8.7c0-0.2-0.4-0.2-0.4,0c-0.9,4.4-4.4,7.9-8.9,8.7
					c-0.2,0-0.2,0.3,0,0.4c4.5,0.8,8,4.3,8.9,8.7c0,0.2,0.4,0.2,0.4,0c0.9-4.4,4.4-7.9,8.9-8.7
					C217.427,25.325,217.427,25.025,217.227,25.025z"/>
			</g>
		</g>
		<g>
			<g>
				<path fill="#FC657E" d="M130.298,69.002c-3.052-0.543-5.425-2.916-6.036-5.9c0-0.136-0.271-0.136-0.271,0
					c-0.61,2.984-2.984,5.358-6.036,5.9c-0.136,0-0.136,0.203,0,0.271c3.052,0.543,5.425,2.916,6.036,5.9
					c0,0.136,0.271,0.136,0.271,0c0.61-2.984,2.984-5.358,6.036-5.9C130.434,69.205,130.434,69.002,130.298,69.002z"/>
			</g>
		</g>
		<g>
			<g>
				<path fill="#70D6F9" d="M21.514,137.35h-2.3v-2.3c0-1.8-1.4-3.2-3.2-3.2s-3.2,1.5-3.2,3.2v2.3h-2.3c-1.8,0-3.2,1.4-3.2,3.2
					s1.5,3.2,3.2,3.2h2.3v2.3c0,1.8,1.4,3.2,3.2,3.2s3.2-1.5,3.2-3.2v-2.3h2.3c1.8,0,3.2-1.4,3.2-3.2S23.214,137.35,21.514,137.35z"
					/>
			</g>
		</g>
		<g>
			<g>
				<path fill="#87D147" d="M188.127,0c-1.878,0-3.4,1.522-3.4,3.4c0,1.878,1.522,3.4,3.4,3.4s3.4-1.522,3.4-3.4
					C191.527,1.522,190.004,0,188.127,0z"/>
			</g>
		</g>
		<g>
			<g>
				<path fill="#F5C84C" d="M25.127,161c-1.878,0-3.4,1.522-3.4,3.4c0,1.878,1.522,3.4,3.4,3.4s3.4-1.522,3.4-3.4
					C28.527,162.522,27.004,161,25.127,161z"/>
			</g>
		</g>
		<g>
			<g>
				<path fill="#F9D0B4" d="M100.797,142.081l-5.758-1.591c0.029,0.283-0.043,0.58-0.234,0.835l-8.987,11.949
					c-0.117,0.156-0.253,0.292-0.396,0.418c0.947,0.175,1.818,0.331,2.5,0.446c0.638,0.107,0.922,0.86,0.517,1.365l-14.947,18.587
					c0.475,0.274,0.772,0.834,0.622,1.441c-0.101,0.407-0.251,0.932-0.35,1.507c-0.315,1.837,0.92,3.626,2.75,3.975l5.055,0.965
					l22.375-26.217C108.353,150.474,105.951,143.455,100.797,142.081z"/>
			</g>
		</g>
		<g>
			<g>
				<path fill="#F5C84C" d="M94.149,139.451l-12.008-3.409c-0.61,0.953-1.579,1.643-2.711,1.905
					c-4.801,1.11-12.009-0.065-15.421-1.034c-0.89-0.253-1.54-0.889-1.846-1.669l-1.895,3.48c-2.774,5.094,1.157,11.57,6.9,12.384
					l15.876,3.261c1.057,0.186,2.129-0.237,2.774-1.094l8.987-11.949C95.316,140.645,94.973,139.664,94.149,139.451z"/>
			</g>
		</g>
		<g>
			<g>
				<path fill="#F5C84C" d="M67.168,151.107c-4.292-0.608-7.57-4.379-7.795-8.372l-6.616,14.209
					c-0.455,0.977-0.007,2.135,0.986,2.553l11.742,4.935c0.871,0.366,1.879,0.036,2.365-0.774l6.628-11.049L67.168,151.107z"/>
			</g>
		</g>
		<g>
			<g>
				<path fill="#F9D0B4" d="M65.485,164.432l-11.742-4.935c-0.216-0.091-0.4-0.221-0.56-0.372l-0.437,0.943
					c-0.633,1.366-1.438,2.646-2.397,3.807l-15.383,18.629c0.734,0.13,1.263,0.875,1.021,1.66c-0.124,0.401-0.304,0.916-0.435,1.484
					c-0.419,1.816,0.713,3.672,2.521,4.125l4.992,1.249l17.33-18.777c1.579-1.711,2.966-3.587,4.138-5.599
					c0.381-0.654,0.803-1.377,1.239-2.122C65.676,164.5,65.579,164.472,65.485,164.432z"/>
			</g>
		</g>
		<g>
			<g>
				<path fill="#DAE6F1" d="M38.091,178.719l-3.125,3.784c0.734,0.13,1.263,0.875,1.021,1.66c-0.124,0.401-0.304,0.916-0.435,1.484
					c-0.419,1.816,0.713,3.672,2.521,4.125l4.992,1.249l4.533-4.912C44.693,183.813,40.592,180.591,38.091,178.719z"/>
			</g>
		</g>
		<g>
			<g>
				<path fill="#DAE6F1" d="M76.703,170.096l-3.211,3.993c0.475,0.274,0.772,0.834,0.622,1.441c-0.101,0.407-0.251,0.932-0.35,1.507
					c-0.315,1.837,0.92,3.626,2.75,3.975l5.055,0.965l4.146-4.858C82.684,174.746,79.643,172.375,76.703,170.096z"/>
			</g>
		</g>
		<g>
			<g>
				
					<ellipse transform="matrix(0.2268 -0.9739 0.9739 0.2268 -8.0042 152.1031)" fill="#F9D0B4" cx="91.794" cy="81.093" rx="11.673" ry="11.673"/>
			</g>
		</g>
		<g>
			<g>
				<g>
					<g>
						<path d="M103.828,73.605c-4.129-6.635-12.885-8.675-19.522-4.546c-3.214,2-5.458,5.132-6.316,8.819
							c-0.858,3.687-0.23,7.488,1.771,10.702c2.682,4.311,7.318,6.682,12.057,6.682c2.555,0,5.141-0.689,7.465-2.136
							C105.917,88.998,107.957,80.24,103.828,73.605z M96.641,88.881c-4.294,2.672-9.963,1.353-12.635-2.942
							c-1.294-2.081-1.702-4.541-1.146-6.927s2.007-4.414,4.088-5.708c1.473-0.917,3.136-1.388,4.829-1.388
							c0.698,0,1.401,0.08,2.098,0.242c2.387,0.556,4.414,2.008,5.708,4.088C102.255,80.541,100.935,86.209,96.641,88.881z"/>
					</g>
				</g>
			</g>
		</g>
		<g>
			<g>
				<path fill="#F5C84C" d="M84.948,96.547l-20.322-2.801c-1.172-0.162-2.238,0.695-2.332,1.874l-1.023,12.753
					c-0.086,1.077,0.674,2.037,1.742,2.199l6.927,1.052c0.624,0.095,1.012,0.728,0.814,1.327l-8.646,20.409
					c-0.507,1.528,0.352,3.112,1.901,3.552c3.412,0.969,10.62,2.144,15.421,1.034c1.49-0.344,2.7-1.428,3.177-2.881l8.996-28.403
					C93.159,102.305,89.608,97.151,84.948,96.547z"/>
			</g>
		</g>
		<g>
			<g>
				<path fill="#FCA265" d="M102.161,113.791l-10.461-11.232c0.375,1.339,0.384,2.759-0.096,4.104l-5.395,17.034l3.88,4.279
					c0.927,1.023,2.56,0.973,3.418-0.12l8.775-11.156C102.964,115.834,102.913,114.598,102.161,113.791z"/>
			</g>
		</g>
		<g>
			<g>
				<path fill="#F9D0B4" d="M133.298,120.114c-0.541-3.435-3.7-5.8-7.124-5.398l-10.396,12.064
					c-0.895,1.039-2.047,1.725-3.279,2.047c-1.999,0.521-4.211,0.085-5.894-1.365c-2.721-2.345-3.026-6.452-0.682-9.173l0.396-0.46
					l-3.799,0.598l-0.855-0.943l-8.094,10.289l1.728,1.906c1.461,1.612,3.636,2.379,5.785,2.04l26.841-4.226
					c0.216-0.034,0.427-0.078,0.633-0.132C131.731,126.534,133.819,123.419,133.298,120.114z"/>
			</g>
		</g>
		<g>
			<g>
				<path fill="#F9D0B4" d="M62.27,95.923l-4.163-0.577c-2.187-0.303-4.379,0.524-5.821,2.197L34.41,118.288
					c-2.345,2.721-2.04,6.828,0.682,9.173c1.683,1.45,3.896,1.887,5.894,1.365c1.233-0.322,2.385-1.008,3.279-2.047l15.564-18.062
					l1.481,0.205c-0.034-0.178-0.054-0.361-0.039-0.55L62.27,95.923z"/>
			</g>
		</g>
		<g>
			<g>
				<path fill="#FCA265" d="M64.626,93.746c-1.172-0.162-2.238,0.695-2.332,1.874l-1.023,12.753
					c-0.086,1.077,0.674,2.037,1.742,2.199l6.927,1.052c0.435,0.066,0.75,0.396,0.837,0.792L74,109.999
					c3.932-2.95,6.742-7.151,7.967-11.912l0.485-1.884L64.626,93.746z"/>
			</g>
		</g>
		<g>
			<g>
				<g>
					<g>
						<path d="M92.924,99.181c-1.715-2.799-4.572-4.709-7.643-5.111l-20.313-2.8c-1.237-0.171-2.504,0.18-3.477,0.962
							c-0.974,0.782-1.589,1.944-1.689,3.189l-1.022,12.752c-0.19,2.374,1.504,4.513,3.859,4.871l5.038,0.765l-7.869,18.576
							c-0.026,0.062-0.05,0.125-0.071,0.188c-0.459,1.385-0.34,2.851,0.335,4.127c0.68,1.285,1.836,2.214,3.255,2.617
							c2.689,0.764,7.23,1.574,11.505,1.574c1.823,0,3.599-0.147,5.161-0.508c2.336-0.54,4.248-2.278,4.999-4.562l8.967-28.318
							C94.909,104.839,94.532,101.806,92.924,99.181z M89.22,105.908l-8.988,28.377c-0.203,0.617-0.713,1.075-1.366,1.226
							c-4.048,0.934-10.725-0.023-14.175-1.003c-0.121-0.035-0.177-0.099-0.202-0.147c-0.026-0.048-0.033-0.1-0.022-0.16
							l8.589-20.274c0.026-0.062,0.05-0.125,0.071-0.189c0.327-0.986,0.203-2.06-0.341-2.946c-0.543-0.886-1.444-1.483-2.471-1.639
							l-6.52-0.99l0.952-11.875l19.858,2.737c0.007,0.001,0.014,0.002,0.02,0.003c1.591,0.206,3.098,1.24,4.033,2.766
							C89.474,103.122,89.688,104.59,89.22,105.908z"/>
					</g>
				</g>
			</g>
		</g>
		<g>
			<g>
				<path d="M103.99,112.087l-10.292-11.051c-0.942-1.011-2.523-1.065-3.533-0.126c-1.011,0.941-1.067,2.523-0.126,3.533
					l10.141,10.888l-8.446,10.737l-3.412-3.763c-0.927-1.023-2.508-1.101-3.531-0.173c-1.023,0.928-1.1,2.509-0.173,3.531
					l3.62,3.992c0.901,0.994,2.172,1.556,3.51,1.556c0.056,0,0.112-0.001,0.168-0.003c1.397-0.049,2.694-0.708,3.558-1.806
					l8.776-11.156C105.701,116.397,105.593,113.807,103.99,112.087z"/>
			</g>
		</g>
		<g>
			<g>
				<path d="M135.768,119.725c-0.712-4.524-4.699-7.768-9.264-7.552c-1.379,0.066-2.443,1.237-2.377,2.617
					c0.066,1.379,1.229,2.447,2.617,2.377c1.996-0.095,3.771,1.337,4.085,3.335c0.318,2.017-0.929,3.925-2.896,4.438
					c-0.128,0.033-0.258,0.061-0.394,0.082l-26.842,4.227c-1.325,0.208-2.646-0.259-3.544-1.25l-1.583-1.745
					c-0.927-1.022-2.508-1.101-3.531-0.172c-1.022,0.928-1.1,2.508-0.172,3.531l1.582,1.744c1.715,1.893,4.117,2.941,6.622,2.941
					c0.466,0,0.935-0.036,1.404-0.11l26.839-4.227c0.297-0.046,0.589-0.107,0.878-0.183
					C133.661,128.614,136.487,124.291,135.768,119.725z"/>
			</g>
		</g>
		<g>
			<g>
				<path d="M62.229,93.394l-3.778-0.524c-3.045-0.422-6.055,0.715-8.059,3.041l-17.876,20.746
					c-3.241,3.761-2.817,9.458,0.944,12.699c1.653,1.424,3.746,2.183,5.88,2.183c0.76,0,1.525-0.096,2.277-0.292
					c1.772-0.462,3.343-1.442,4.542-2.834l14.679-17.035c1.309,0.096,2.473-0.838,2.655-2.149c0.19-1.368-0.765-2.63-2.132-2.82
					l-1.188-0.165c-0.841-0.119-1.684,0.201-2.238,0.844l-15.563,18.062c-0.534,0.619-1.231,1.055-2.018,1.26
					c-1.275,0.332-2.634,0.019-3.63-0.84c-1.673-1.442-1.861-3.975-0.42-5.648L54.18,99.174c0.891-1.035,2.232-1.535,3.584-1.353
					l3.778,0.524c1.364,0.191,2.629-0.766,2.819-2.133C64.552,94.845,63.597,93.583,62.229,93.394z"/>
			</g>
		</g>
		<g>
			<g>
				<path d="M83.032,93.951c-1.338-0.348-2.7,0.46-3.044,1.798l-0.441,1.715c-1.08,4.194-3.582,7.936-7.046,10.535l-3.118,2.339
					c-1.104,0.829-1.329,2.396-0.5,3.5c0.491,0.655,1.242,1,2.002,1c0.522,0,1.048-0.163,1.498-0.5l3.118-2.339
					c4.37-3.278,7.527-7.998,8.888-13.289l0.441-1.715C85.174,95.658,84.369,94.295,83.032,93.951z"/>
			</g>
		</g>
		<g>
			<g>
				<path fill="#FC657E" d="M51.602,206.186c-1.637-1.761-3.289-4.346-4.037-6.872l-1.646-5.558
					c-0.401-1.352-1.486-2.392-2.854-2.735l-4.993-1.25c-1.805-0.452-2.938-2.26-2.531-4.075c0.132-0.588,0.319-1.121,0.446-1.533
					c0.305-0.99-0.613-1.935-1.627-1.633l-8.32,4.759c-1.166,0.916-1.237,2.522-0.219,3.549l15.325,15.472
					c4.314,4.356,7.995,3.624,9.446,3.066C51.964,208.849,52.519,207.172,51.602,206.186z"/>
			</g>
		</g>
		<g>
			<g>
				<g>
					<g>
						<path d="M53.433,204.484c-1.565-1.684-2.895-3.937-3.471-5.88l-1.646-5.558c-0.649-2.19-2.429-3.896-4.645-4.45l-4.993-1.25
							c-0.494-0.124-0.807-0.618-0.698-1.103c0.085-0.379,0.201-0.731,0.296-1.03l0.1-0.314c0.414-1.344,0.056-2.799-0.934-3.798
							c-0.989-0.999-2.444-1.367-3.797-0.966c-0.184,0.055-0.361,0.131-0.527,0.226l-8.32,4.759
							c-0.106,0.061-0.208,0.129-0.304,0.204c-1.108,0.871-1.792,2.158-1.877,3.531c-0.085,1.377,0.435,2.742,1.427,3.743
							l15.326,15.472c3.336,3.369,6.487,4.232,8.841,4.232c1.437,0,2.576-0.322,3.279-0.592c1.492-0.574,2.593-1.831,2.947-3.362
							C54.76,206.952,54.385,205.507,53.433,204.484z M42.923,204.551l-15.199-15.345l5.241-2.998c-0.1,2.739,1.75,5.301,4.5,5.989
							l4.993,1.25c0.508,0.127,0.916,0.518,1.064,1.02l1.646,5.558c0.714,2.412,2.182,5.037,3.993,7.177
							C47.972,207.461,45.722,207.376,42.923,204.551z"/>
					</g>
				</g>
			</g>
		</g>
		<g>
			<g>
				<path fill="#FC657E" d="M90.952,196.633c-1.734-1.665-3.53-4.153-4.42-6.632l-1.958-5.456c-0.477-1.328-1.619-2.304-3.005-2.569
					l-5.056-0.965c-1.828-0.349-3.062-2.09-2.758-3.925c0.098-0.594,0.255-1.137,0.358-1.556c0.249-1.006-0.721-1.897-1.717-1.538
					l-8.037,5.223c-1.112,0.98-1.092,2.588-0.018,3.556l16.177,14.579c4.554,4.104,8.188,3.165,9.604,2.526
					C91.464,199.271,91.923,197.566,90.952,196.633z"/>
			</g>
		</g>
		<g>
			<g>
				<g>
					<g>
						<path d="M92.684,194.83L92.684,194.83c-1.659-1.593-3.114-3.767-3.799-5.674l-1.958-5.456
							c-0.772-2.15-2.646-3.751-4.889-4.179l-5.055-0.965c-0.5-0.096-0.842-0.572-0.761-1.061c0.063-0.381,0.158-0.735,0.235-1.037
							l0.084-0.329c0.337-1.365-0.103-2.798-1.147-3.74c-1.044-0.941-2.518-1.229-3.846-0.75c-0.18,0.065-0.353,0.151-0.514,0.255
							l-8.037,5.223c-0.103,0.066-0.2,0.141-0.291,0.221c-1.058,0.932-1.668,2.256-1.675,3.631c-0.007,1.379,0.59,2.712,1.637,3.656
							l16.177,14.579c3.256,2.934,6.231,3.74,8.519,3.74c1.697,0,3.016-0.444,3.788-0.792c1.457-0.657,2.486-1.974,2.753-3.522
							C94.149,197.22,93.692,195.799,92.684,194.83z M82.194,195.492L66.15,181.033l5.062-3.29c0.055,2.739,2.047,5.192,4.833,5.724
							l5.056,0.965c0.514,0.098,0.943,0.465,1.12,0.958l1.958,5.456c0.85,2.368,2.464,4.905,4.394,6.939
							C87.399,198.11,85.149,198.155,82.194,195.492z"/>
					</g>
				</g>
			</g>
		</g>
		<g>
			<g>
				<path d="M108.232,146.332c-1.055-3.322-3.594-5.814-6.77-6.661l-5.303-1.466c-1.328-0.368-2.708,0.413-3.076,1.744
					c-0.368,1.331,0.413,2.708,1.744,3.076l5.325,1.472c1.54,0.411,2.779,1.663,3.315,3.349c0.67,2.11,0.144,4.411-1.424,6.292
					l-22.157,25.961c-0.896,1.05-0.772,2.628,0.278,3.524c0.471,0.402,1.048,0.599,1.622,0.599c0.706,0,1.408-0.298,1.902-0.877
					l22.175-25.982C108.527,154.169,109.412,150.046,108.232,146.332z"/>
			</g>
		</g>
		<g>
			<g>
				<g>
					<g>
						<path d="M90.907,153.779c-0.421-1.104-1.406-1.912-2.573-2.107c-0.584-0.098-1.31-0.227-2.104-0.373
							c-1.356-0.249-2.661,0.649-2.91,2.008c-0.214,1.168,0.421,2.296,1.468,2.747L71.714,172.31
							c-0.865,1.076-0.694,2.65,0.381,3.515c0.462,0.372,1.016,0.552,1.565,0.552c0.731,0,1.456-0.319,1.95-0.933l14.777-18.375
							C91.129,156.146,91.329,154.885,90.907,153.779z"/>
					</g>
				</g>
			</g>
		</g>
		<g>
			<g>
				<g>
					<g>
						<path d="M97.337,139.389c-0.408-1.167-1.365-2.048-2.506-2.343l-11.639-3.304c-1.325-0.376-2.71,0.394-3.087,1.722
							c-0.377,1.328,0.394,2.71,1.722,3.087l9.835,2.792l-7.843,10.428c-0.08,0.106-0.212,0.157-0.273,0.148l-15.875-3.261
							c-0.05-0.011-0.101-0.02-0.152-0.026c-2.093-0.296-4.01-1.709-5.004-3.687c-0.5-0.994-1.171-2.97-0.051-5.026l1.827-3.354
							c0.66-1.213,0.212-2.731-1-3.392c-1.212-0.659-2.731-0.212-3.392,1l-1.827,3.355c-1.613,2.963-1.623,6.485-0.025,9.663
							c1.732,3.446,4.976,5.826,8.689,6.38l15.874,3.26c0.314,0.055,0.628,0.082,0.939,0.082c1.664,0,3.241-0.773,4.266-2.136
							l8.986-11.949C97.545,141.841,97.745,140.555,97.337,139.389z"/>
					</g>
				</g>
			</g>
		</g>
		<g>
			<g>
				<path d="M75.558,150.808c-1.186-0.709-2.72-0.326-3.43,0.858l-6.154,10.26l-10.687-4.492l6.314-13.561
					c0.583-1.251,0.041-2.739-1.211-3.322c-1.25-0.582-2.739-0.04-3.322,1.211l-6.577,14.126c-0.502,1.078-0.544,2.333-0.115,3.442
					c0.428,1.109,1.303,2.009,2.399,2.47l11.742,4.935c0.547,0.23,1.121,0.34,1.688,0.34c1.509,0,2.976-0.777,3.79-2.132
					l6.422-10.707C77.126,153.054,76.742,151.518,75.558,150.808z"/>
			</g>
		</g>
		<g>
			<g>
				<path d="M66.813,162.748c-1.193-0.698-2.723-0.298-3.421,0.894l-1.019,1.746c-1.076,1.848-2.36,3.584-3.815,5.162
					l-17.124,18.554c-0.937,1.015-0.873,2.597,0.141,3.533c0.481,0.444,1.089,0.663,1.695,0.663c0.673,0,1.345-0.271,1.837-0.804
					l17.125-18.554c1.702-1.844,3.203-3.875,4.461-6.037l1.013-1.734C68.405,164.977,68.005,163.445,66.813,162.748z"/>
			</g>
		</g>
		<g>
			<g>
				<path d="M54.083,157.183c-1.253-0.579-2.739-0.036-3.319,1.218l-0.286,0.617c-0.542,1.171-1.233,2.269-2.056,3.265
					l-15.141,18.335c-0.879,1.064-0.729,2.64,0.336,3.52c0.466,0.385,1.03,0.572,1.59,0.572c0.72,0,1.435-0.31,1.929-0.908
					l15.141-18.335c1.095-1.326,2.016-2.789,2.737-4.347l0.286-0.617C55.88,159.249,55.335,157.763,54.083,157.183z"/>
			</g>
		</g>
		<g>
			<g>
				<path d="M48.939,183.983c-2.756-2.178-6.562-5.166-9.038-7.03c-1.104-0.832-2.671-0.61-3.501,0.493
					c-0.831,1.103-0.61,2.67,0.493,3.501c2.438,1.836,6.21,4.798,8.946,6.959c0.459,0.363,1.005,0.539,1.548,0.539
					c0.738,0,1.47-0.326,1.963-0.95C50.207,186.411,50.022,184.839,48.939,183.983z"/>
			</g>
		</g>
		<g>
			<g>
				<path d="M87.003,174.952c-2.842-2.224-5.689-4.444-8.452-6.587c-1.09-0.846-2.661-0.647-3.508,0.443
					c-0.846,1.091-0.647,2.662,0.443,3.508c2.757,2.138,5.6,4.354,8.436,6.573c0.458,0.358,1,0.531,1.539,0.531
					c0.743,0,1.478-0.329,1.971-0.959C88.282,177.374,88.09,175.802,87.003,174.952z"/>
			</g>
		</g>
		<g>
			<g>
				<path fill="#F9D0B4" d="M172.31,142.081l-5.758-1.591c0.029,0.283-0.043,0.58-0.234,0.835l-8.987,11.949
					c-0.117,0.156-0.253,0.292-0.396,0.418c0.947,0.175,1.818,0.331,2.5,0.446c0.638,0.107,0.922,0.86,0.517,1.365l-14.947,18.587
					c0.475,0.274,0.772,0.834,0.622,1.441c-0.101,0.407-0.251,0.932-0.35,1.507c-0.315,1.837,0.92,3.626,2.75,3.975l5.055,0.965
					l22.375-26.217C179.867,150.474,177.464,143.455,172.31,142.081z"/>
			</g>
		</g>
		<g>
			<g>
				<path fill="#70D6F9" d="M165.663,139.451l-12.008-3.409c-0.61,0.953-1.579,1.643-2.711,1.905
					c-4.801,1.11-12.009-0.065-15.421-1.034c-0.89-0.253-1.54-0.889-1.846-1.669l-1.895,3.48c-2.774,5.094,1.157,11.57,6.9,12.384
					l15.876,3.261c1.057,0.186,2.129-0.237,2.774-1.094l8.987-11.949C166.829,140.645,166.486,139.664,165.663,139.451z"/>
			</g>
		</g>
		<g>
			<g>
				<path fill="#70D6F9" d="M138.682,151.107c-4.292-0.608-7.57-4.379-7.795-8.372l-6.616,14.209
					c-0.455,0.977-0.007,2.135,0.986,2.553l11.742,4.935c0.871,0.366,1.879,0.036,2.365-0.774l6.628-11.049L138.682,151.107z"/>
			</g>
		</g>
		<g>
			<g>
				<path fill="#F9D0B4" d="M136.998,164.432l-11.742-4.935c-0.216-0.091-0.4-0.221-0.56-0.372l-0.437,0.943
					c-0.633,1.366-1.438,2.646-2.397,3.807l-15.383,18.629c0.734,0.13,1.263,0.875,1.021,1.66c-0.124,0.401-0.304,0.916-0.435,1.484
					c-0.419,1.816,0.713,3.672,2.521,4.125l4.992,1.249l17.33-18.777c1.579-1.711,2.966-3.587,4.138-5.599
					c0.381-0.654,0.803-1.377,1.239-2.122C137.19,164.5,137.093,164.472,136.998,164.432z"/>
			</g>
		</g>
		<g>
			<g>
				<path fill="#DAE6F1" d="M109.605,178.719l-3.125,3.784c0.734,0.13,1.263,0.875,1.021,1.66c-0.124,0.401-0.304,0.916-0.435,1.484
					c-0.419,1.816,0.713,3.672,2.521,4.125l4.992,1.249l4.533-4.912C116.207,183.813,112.105,180.591,109.605,178.719z"/>
			</g>
		</g>
		<g>
			<g>
				<path fill="#DAE6F1" d="M148.217,170.096l-3.211,3.993c0.475,0.274,0.772,0.834,0.622,1.441
					c-0.101,0.407-0.251,0.932-0.35,1.507c-0.315,1.837,0.92,3.626,2.75,3.975l5.055,0.965l4.146-4.858
					C154.198,174.746,151.156,172.375,148.217,170.096z"/>
			</g>
		</g>
		<g>
			<g>
				
					<ellipse transform="matrix(0.2268 -0.9739 0.9739 0.2268 47.2903 221.7534)" fill="#F9D0B4" cx="163.308" cy="81.093" rx="11.673" ry="11.673"/>
			</g>
		</g>
		<g>
			<g>
				<g>
					<g>
						<path d="M175.342,73.605c-4.128-6.635-12.886-8.675-19.522-4.546c-3.214,2-5.458,5.132-6.316,8.819
							c-0.858,3.687-0.23,7.488,1.771,10.702c2,3.214,5.132,5.457,8.819,6.316c1.077,0.25,2.163,0.375,3.241,0.375
							c2.615,0,5.185-0.729,7.461-2.145C177.431,88.998,179.47,80.24,175.342,73.605z M168.154,88.881
							c-2.081,1.294-4.542,1.7-6.927,1.146c-2.386-0.556-4.414-2.007-5.708-4.088s-1.702-4.541-1.146-6.927s2.007-4.414,4.088-5.708
							c1.473-0.917,3.136-1.388,4.829-1.388c0.698,0,1.401,0.08,2.098,0.242c2.387,0.556,4.414,2.008,5.708,4.088
							C173.769,80.541,172.449,86.209,168.154,88.881z"/>
					</g>
				</g>
			</g>
		</g>
		<g>
			<g>
				<path fill="#70D6F9" d="M156.462,96.547l-20.322-2.801c-1.172-0.162-2.238,0.695-2.332,1.874l-1.023,12.753
					c-0.086,1.077,0.674,2.037,1.742,2.199l6.927,1.052c0.624,0.095,1.012,0.728,0.814,1.327l-8.646,20.409
					c-0.507,1.528,0.352,3.112,1.901,3.552c3.412,0.969,10.62,2.144,15.421,1.034c1.49-0.344,2.7-1.428,3.177-2.881l8.996-28.403
					C164.673,102.305,161.122,97.151,156.462,96.547z"/>
			</g>
		</g>
		<g>
			<g>
				<path fill="#FC657E" d="M173.674,113.791l-10.461-11.232c0.375,1.339,0.384,2.759-0.096,4.104l-5.395,17.034l3.88,4.279
					c0.927,1.023,2.56,0.973,3.418-0.12l8.775-11.156C174.478,115.834,174.427,114.598,173.674,113.791z"/>
			</g>
		</g>
		<g>
			<g>
				<path fill="#F9D0B4" d="M204.812,120.114c-0.554-3.521-3.858-5.926-7.379-5.371l-23.398,3.684l-0.855-0.943l-8.094,10.289
					l1.728,1.906c1.461,1.612,3.636,2.379,5.785,2.04l26.841-4.226C202.953,126.941,205.368,123.643,204.812,120.114z"/>
			</g>
		</g>
		<g>
			<g>
				<path fill="#F9D0B4" d="M133.784,95.923l-4.163-0.577c-2.187-0.303-4.379,0.524-5.821,2.197l-17.876,20.746
					c-2.345,2.721-2.04,6.828,0.682,9.173c1.683,1.45,3.896,1.887,5.894,1.365c1.233-0.322,2.385-1.008,3.279-2.047l15.564-18.062
					l1.481,0.205c-0.034-0.178-0.054-0.361-0.038-0.55L133.784,95.923z"/>
			</g>
		</g>
		<g>
			<g>
				<path fill="#FC657E" d="M136.14,93.746c-1.172-0.162-2.238,0.695-2.332,1.874l-1.023,12.753
					c-0.086,1.077,0.674,2.037,1.742,2.199l6.927,1.052c0.435,0.066,0.75,0.396,0.837,0.792l3.222-2.417
					c3.932-2.95,6.742-7.151,7.967-11.912l0.485-1.884L136.14,93.746z"/>
			</g>
		</g>
		<g>
			<g>
				<g>
					<g>
						<path d="M164.437,99.181c-1.715-2.799-4.572-4.709-7.643-5.111l-20.313-2.8c-1.238-0.171-2.504,0.18-3.477,0.962
							c-0.974,0.782-1.589,1.944-1.689,3.189l-1.022,12.752c-0.19,2.374,1.504,4.513,3.859,4.871l5.038,0.765l-7.869,18.576
							c-0.026,0.062-0.05,0.125-0.071,0.189c-0.459,1.386-0.34,2.852,0.336,4.127c0.68,1.284,1.836,2.213,3.254,2.616
							c2.689,0.764,7.23,1.574,11.505,1.574c1.823,0,3.599-0.147,5.161-0.508c2.336-0.54,4.248-2.278,4.999-4.562l8.967-28.318
							C166.422,104.839,166.045,101.806,164.437,99.181z M160.734,105.908l-8.988,28.377c-0.203,0.617-0.713,1.075-1.366,1.226
							c-4.047,0.934-10.726-0.023-14.175-1.003c-0.097-0.028-0.165-0.077-0.202-0.147c-0.025-0.048-0.033-0.102-0.022-0.161
							l8.588-20.273c0.026-0.062,0.05-0.125,0.071-0.189c0.327-0.986,0.203-2.06-0.341-2.946c-0.543-0.886-1.444-1.483-2.471-1.639
							l-6.52-0.99l0.952-11.875l19.858,2.737c0.007,0.001,0.014,0.002,0.02,0.003c1.591,0.206,3.098,1.24,4.033,2.766
							C160.988,103.122,161.202,104.59,160.734,105.908z"/>
					</g>
				</g>
			</g>
		</g>
		<g>
			<g>
				<path d="M175.504,112.087l-10.292-11.051c-0.942-1.011-2.523-1.065-3.533-0.126c-1.011,0.941-1.067,2.523-0.126,3.533
					l10.141,10.888l-8.446,10.737l-3.412-3.763c-0.927-1.023-2.508-1.101-3.531-0.173c-1.023,0.928-1.1,2.509-0.173,3.531
					l3.62,3.992c0.901,0.994,2.172,1.556,3.51,1.556c0.056,0,0.112-0.001,0.168-0.003c1.397-0.049,2.694-0.708,3.558-1.806
					l8.776-11.156C177.215,116.397,177.106,113.807,175.504,112.087z"/>
			</g>
		</g>
		<g>
			<g>
				<path d="M207.282,119.725c-0.372-2.363-1.642-4.439-3.575-5.847c-1.934-1.408-4.302-1.977-6.662-1.605l-22.087,3.478
					c-0.944-0.809-2.362-0.809-3.306,0.047c-1.022,0.928-1.1,2.509-0.172,3.532l0.704,0.776c0.566,0.624,1.409,0.923,2.241,0.79
					l23.398-3.684c1.044-0.166,2.088,0.087,2.941,0.708c0.854,0.622,1.415,1.539,1.579,2.582c0.165,1.044-0.087,2.09-0.71,2.944
					c-0.622,0.853-1.538,1.413-2.58,1.577l-26.841,4.227c-1.326,0.208-2.646-0.259-3.545-1.25l-1.583-1.745
					c-0.927-1.022-2.508-1.101-3.531-0.172c-1.022,0.928-1.1,2.508-0.172,3.531l1.582,1.744c1.715,1.893,4.118,2.941,6.623,2.941
					c0.466,0,0.935-0.036,1.404-0.11l26.841-4.227c2.359-0.371,4.435-1.639,5.843-3.57
					C207.083,124.458,207.654,122.09,207.282,119.725z"/>
			</g>
		</g>
		<g>
			<g>
				<path d="M133.743,93.394l-3.778-0.524c-3.044-0.422-6.055,0.715-8.059,3.041l-17.876,20.746
					c-3.241,3.761-2.817,9.458,0.944,12.699c1.653,1.424,3.746,2.183,5.88,2.183c0.76,0,1.525-0.096,2.277-0.292
					c1.772-0.462,3.343-1.442,4.542-2.834l14.679-17.035c1.306,0.096,2.473-0.838,2.655-2.15c0.19-1.368-0.765-2.63-2.132-2.82
					l-1.188-0.165c-0.842-0.116-1.684,0.202-2.238,0.844l-15.563,18.062c-0.534,0.619-1.231,1.055-2.018,1.26
					c-1.277,0.332-2.633,0.019-3.63-0.84c-1.673-1.442-1.861-3.975-0.42-5.648l17.876-20.746c0.892-1.035,2.232-1.535,3.584-1.353
					l3.778,0.524c1.361,0.191,2.63-0.766,2.819-2.133C136.065,94.845,135.11,93.583,133.743,93.394z"/>
			</g>
		</g>
		<g>
			<g>
				<path d="M154.545,93.951c-1.337-0.348-2.7,0.46-3.044,1.798l-0.441,1.715c-1.08,4.194-3.582,7.936-7.046,10.535l-3.118,2.339
					c-1.104,0.829-1.329,2.396-0.5,3.5c0.491,0.655,1.242,1,2.002,1c0.522,0,1.048-0.163,1.498-0.5l3.118-2.339
					c4.37-3.278,7.527-7.998,8.888-13.289l0.441-1.715C156.687,95.658,155.882,94.295,154.545,93.951z"/>
			</g>
		</g>
		<g>
			<g>
				<path fill="#70D6F9" d="M123.116,206.186c-1.637-1.761-3.289-4.346-4.037-6.872l-1.646-5.558
					c-0.401-1.352-1.486-2.392-2.854-2.735l-4.993-1.25c-1.805-0.452-2.938-2.26-2.531-4.075c0.132-0.588,0.319-1.121,0.446-1.533
					c0.305-0.99-0.613-1.935-1.627-1.633l-8.32,4.759c-1.166,0.916-1.237,2.522-0.219,3.549l15.325,15.472
					c4.314,4.356,7.995,3.624,9.446,3.066C123.477,208.849,124.033,207.172,123.116,206.186z"/>
			</g>
		</g>
		<g>
			<g>
				<g>
					<g>
						<path d="M124.946,204.483c-1.564-1.684-2.894-3.937-3.47-5.879l-1.646-5.558c-0.649-2.19-2.429-3.896-4.644-4.45l-4.993-1.25
							c-0.494-0.124-0.807-0.618-0.698-1.103c0.084-0.375,0.198-0.724,0.293-1.02l0.103-0.324c0.414-1.344,0.056-2.799-0.934-3.798
							c-0.989-0.999-2.444-1.367-3.797-0.966c-0.184,0.055-0.361,0.131-0.527,0.226l-8.319,4.759
							c-0.106,0.061-0.207,0.128-0.303,0.204c-1.108,0.871-1.793,2.158-1.878,3.53c-0.085,1.377,0.435,2.742,1.427,3.744
							l15.326,15.472c3.336,3.369,6.487,4.232,8.841,4.232c1.437,0,2.576-0.322,3.279-0.592c1.492-0.574,2.594-1.831,2.948-3.362
							C126.274,206.951,125.898,205.507,124.946,204.483z M114.437,204.551l-15.198-15.345l5.24-2.998
							c-0.1,2.738,1.75,5.3,4.5,5.988l4.993,1.25c0.508,0.127,0.916,0.518,1.064,1.02l1.646,5.558
							c0.715,2.412,2.182,5.037,3.994,7.177C119.484,207.461,117.235,207.376,114.437,204.551z"/>
					</g>
				</g>
			</g>
		</g>
		<g>
			<g>
				<path fill="#70D6F9" d="M162.466,196.633c-1.734-1.665-3.53-4.153-4.42-6.632l-1.958-5.456
					c-0.477-1.328-1.619-2.304-3.005-2.569l-5.055-0.965c-1.828-0.349-3.062-2.09-2.758-3.925c0.098-0.594,0.255-1.137,0.358-1.556
					c0.249-1.006-0.721-1.897-1.717-1.538l-8.037,5.223c-1.112,0.98-1.092,2.588-0.018,3.556l16.177,14.579
					c4.554,4.104,8.188,3.165,9.604,2.526C162.977,199.271,163.437,197.566,162.466,196.633z"/>
			</g>
		</g>
		<g>
			<g>
				<g>
					<g>
						<path d="M164.198,194.83C164.198,194.83,164.198,194.83,164.198,194.83c-1.659-1.593-3.114-3.767-3.799-5.674l-1.958-5.456
							c-0.772-2.15-2.646-3.751-4.889-4.179l-5.055-0.965c-0.5-0.096-0.842-0.572-0.761-1.061c0.063-0.381,0.158-0.735,0.235-1.037
							l0.083-0.328c0.338-1.365-0.101-2.798-1.146-3.74c-1.045-0.941-2.52-1.229-3.847-0.75c-0.18,0.065-0.353,0.151-0.514,0.255
							l-8.037,5.223c-0.103,0.066-0.2,0.141-0.291,0.221c-1.058,0.932-1.668,2.256-1.675,3.631c-0.007,1.379,0.59,2.712,1.637,3.656
							l16.177,14.579c3.255,2.934,6.231,3.74,8.519,3.74c1.698,0,3.017-0.444,3.788-0.792c1.457-0.658,2.485-1.974,2.752-3.522
							C165.662,197.22,165.206,195.798,164.198,194.83z M153.708,195.492l-16.043-14.459l5.062-3.29
							c0.055,2.739,2.047,5.192,4.833,5.724l5.056,0.965c0.514,0.098,0.943,0.465,1.12,0.958l1.958,5.456
							c0.85,2.368,2.464,4.905,4.394,6.939C158.915,198.11,156.662,198.155,153.708,195.492z"/>
					</g>
				</g>
			</g>
		</g>
		<g>
			<g>
				<path d="M179.746,146.332c-1.055-3.322-3.594-5.814-6.77-6.661l-5.304-1.466c-1.33-0.368-2.708,0.413-3.076,1.744
					s0.413,2.708,1.744,3.076l5.326,1.472c1.54,0.411,2.779,1.663,3.314,3.349c0.67,2.11,0.144,4.411-1.424,6.292L151.4,180.098
					c-0.896,1.05-0.772,2.628,0.278,3.524c0.471,0.402,1.048,0.599,1.622,0.599c0.706,0,1.408-0.298,1.902-0.877l22.175-25.982
					C180.041,154.169,180.926,150.046,179.746,146.332z"/>
			</g>
		</g>
		<g>
			<g>
				<g>
					<g>
						<path d="M162.421,153.779c-0.42-1.104-1.406-1.912-2.573-2.107c-0.584-0.098-1.311-0.227-2.104-0.373
							c-1.356-0.249-2.661,0.649-2.91,2.008c-0.214,1.168,0.421,2.296,1.468,2.747l-13.073,16.256
							c-0.865,1.076-0.694,2.65,0.381,3.515c0.462,0.372,1.016,0.552,1.565,0.552c0.731,0,1.456-0.319,1.95-0.933l14.777-18.375
							C162.643,156.145,162.842,154.885,162.421,153.779z"/>
					</g>
				</g>
			</g>
		</g>
		<g>
			<g>
				<g>
					<g>
						<path d="M168.851,139.389c-0.408-1.167-1.365-2.048-2.506-2.343l-11.639-3.304c-1.326-0.376-2.71,0.394-3.087,1.722
							c-0.377,1.328,0.394,2.71,1.722,3.087l9.835,2.792l-7.842,10.427c-0.081,0.107-0.212,0.157-0.274,0.149l-15.875-3.261
							c-0.05-0.011-0.101-0.02-0.152-0.026c-2.093-0.296-4.01-1.709-5.004-3.687c-0.5-0.994-1.171-2.97-0.051-5.026l1.827-3.354
							c0.66-1.213,0.212-2.731-1-3.392c-1.212-0.659-2.731-0.212-3.392,1l-1.827,3.355c-1.613,2.963-1.623,6.485-0.025,9.663
							c1.732,3.446,4.976,5.826,8.689,6.38l15.874,3.26c0.314,0.055,0.628,0.082,0.939,0.082c1.663,0,3.24-0.773,4.267-2.136
							l8.986-11.948C169.059,141.841,169.259,140.555,168.851,139.389z"/>
					</g>
				</g>
			</g>
		</g>
		<g>
			<g>
				<path d="M147.072,150.808c-1.185-0.709-2.72-0.326-3.43,0.858l-6.155,10.26l-10.687-4.492l6.314-13.561
					c0.583-1.251,0.041-2.739-1.211-3.322c-1.25-0.582-2.738-0.04-3.322,1.211l-6.577,14.126c-0.502,1.078-0.544,2.333-0.115,3.442
					c0.428,1.109,1.303,2.009,2.399,2.47l11.742,4.935c0.547,0.23,1.121,0.34,1.688,0.34c1.509,0,2.976-0.777,3.79-2.132
					l6.423-10.707C148.64,153.054,148.256,151.518,147.072,150.808z"/>
			</g>
		</g>
		<g>
			<g>
				<path d="M138.327,162.748c-1.193-0.698-2.723-0.298-3.421,0.894l-1.019,1.746c-1.076,1.848-2.36,3.584-3.815,5.162
					l-17.124,18.554c-0.937,1.015-0.873,2.597,0.141,3.533c0.481,0.444,1.089,0.663,1.695,0.663c0.673,0,1.345-0.271,1.837-0.804
					l17.125-18.554c1.702-1.844,3.203-3.875,4.461-6.037l1.013-1.734C139.918,164.977,139.519,163.445,138.327,162.748z"/>
			</g>
		</g>
		<g>
			<g>
				<path d="M125.596,157.183c-1.253-0.579-2.74-0.036-3.319,1.218l-0.286,0.617c-0.542,1.171-1.233,2.269-2.056,3.265
					l-15.141,18.335c-0.879,1.064-0.729,2.64,0.336,3.52c0.466,0.385,1.03,0.572,1.59,0.572c0.72,0,1.435-0.31,1.929-0.908
					l15.141-18.335c1.095-1.326,2.016-2.789,2.737-4.347l0.286-0.617C127.394,159.249,126.849,157.763,125.596,157.183z"/>
			</g>
		</g>
		<g>
			<g>
				<path d="M120.453,183.983c-2.756-2.178-6.562-5.166-9.038-7.03c-1.104-0.832-2.671-0.61-3.501,0.493
					c-0.831,1.103-0.61,2.67,0.493,3.501c2.438,1.836,6.21,4.798,8.946,6.959c0.459,0.363,1.005,0.539,1.548,0.539
					c0.738,0,1.47-0.326,1.963-0.95C121.72,186.411,121.536,184.839,120.453,183.983z"/>
			</g>
		</g>
		<g>
			<g>
				<path d="M158.517,174.952c-2.842-2.224-5.689-4.444-8.452-6.587c-1.089-0.846-2.661-0.647-3.508,0.443
					c-0.846,1.091-0.647,2.662,0.443,3.508c2.757,2.138,5.6,4.354,8.436,6.573c0.458,0.358,1,0.531,1.539,0.531
					c0.743,0,1.478-0.329,1.971-0.959C159.796,177.374,159.604,175.802,158.517,174.952z"/>
			</g>
		</g>
		<g>
			<g>
				<g>
					<g>
						<path d="M252.016,197.068L252.016,197.068c-38.258-15.063-78.925-3.083-114.804,7.485
							c-20.941,6.168-40.721,11.995-57.936,11.995c-33.418,0-57.15-21.869-68.322-34.905c-1.715-2.001-4.42-2.705-6.891-1.792
							C1.595,180.765,0,183.058,0,185.692v64.082C0,253.207,2.793,256,6.226,256h243.548c3.433,0,6.226-2.793,6.226-6.226v-46.895
							C256,200.303,254.436,198.022,252.016,197.068z M251,249.774c0,0.676-0.55,1.226-1.226,1.226H6.226
							C5.55,251,5,250.45,5,249.774v-64.082c0-0.772,0.558-1.062,0.798-1.151c0.1-0.037,0.263-0.083,0.456-0.083
							c0.274,0,0.608,0.093,0.904,0.438c11.731,13.688,36.699,36.651,72.119,36.651c17.937,0,38.052-5.926,59.349-12.199
							c35.107-10.341,74.897-22.064,111.559-7.629c0.496,0.196,0.816,0.65,0.816,1.158V249.774z"/>
					</g>
				</g>
			</g>
		</g>
		<g>
			<g>
				<path fill="#BBEDF9" d="M140.855,29.529c-1.281,0.086-2.481-0.729-2.699-1.995c-0.932-5.412-5.667-9.377-11.173-9.377
					c-1.994,0-3.864,0.517-5.49,1.422c-1.245,0.693-2.783,0.181-3.444-1.08c-2.8-5.345-8.401-8.991-14.853-8.991
					c-8.568,0-15.615,6.435-16.616,14.734c-0.145,1.204-1.06,2.003-2.131,2.119c-7.067,0.767-12.326,7.185-11.427,14.511
					c0.805,6.563,6.656,11.344,13.268,11.344H141.2c6.365,0,11.85-5.208,11.731-11.572
					C152.808,34.058,147.157,29.109,140.855,29.529z"/>
			</g>
		</g>
		<g>
			<g>
				<path fill="#9BE5F9" d="M171.207,20.043c-0.779-0.085-1.444-0.665-1.55-1.542c-0.728-6.036-5.854-10.718-12.087-10.718
					c-4.694,0-8.767,2.653-10.804,6.541c-0.481,0.918-1.6,1.29-2.505,0.786c-1.183-0.658-2.543-1.034-3.994-1.034
					c-3.545,0-6.647,2.262-7.783,5.512c2.917,1.618,5.075,4.483,5.672,7.946c0.218,1.266,1.417,2.081,2.699,1.995
					c5.714-0.382,10.877,3.657,11.886,9.321h17.127c4.81,0,9.066-3.478,9.652-8.251C180.174,25.27,176.348,20.602,171.207,20.043z"
					/>
			</g>
		</g>
		<g>
			<g>
				<g>
					<g>
						<path d="M150.956,30.668c-2.787-2.558-6.526-3.876-10.268-3.633c-0.032,0.002-0.062-0.002-0.082-0.008
							c-1.177-6.593-6.893-11.369-13.622-11.369c-2.344,0-4.663,0.601-6.719,1.682c-3.339-6.373-9.878-10.332-17.067-10.332
							c-9.704,0-17.901,7.25-19.09,16.876c-4.098,0.464-7.767,2.504-10.339,5.749c-2.592,3.27-3.738,7.37-3.226,11.544
							c0.947,7.718,7.718,13.539,15.75,13.539H141.2c3.822,0,7.564-1.58,10.268-4.335c2.624-2.673,4.031-6.147,3.962-9.785
							C155.359,36.777,153.77,33.251,150.956,30.668z M147.9,46.879c-1.77,1.803-4.211,2.837-6.7,2.837H86.292
							c-5.51,0-10.147-3.933-10.787-9.148c-0.348-2.835,0.426-5.615,2.181-7.829c1.75-2.208,4.249-3.59,7.035-3.893
							c2.281-0.248,4.067-2.018,4.342-4.305c0.861-7.145,6.938-12.533,14.134-12.533c5.323,0,10.166,2.932,12.639,7.652
							c0.637,1.215,1.748,2.134,3.049,2.522c1.291,0.384,2.648,0.237,3.825-0.418c1.301-0.724,2.778-1.106,4.274-1.106
							c4.317,0,7.98,3.071,8.709,7.301c0.429,2.493,2.71,4.238,5.329,4.065c2.375-0.157,4.768,0.689,6.553,2.327
							c1.796,1.649,2.811,3.9,2.857,6.339C150.474,42.974,149.575,45.172,147.9,46.879z"/>
					</g>
				</g>
			</g>
		</g>
		<g>
			<g>
				<path d="M179.513,22c-1.874-2.364-4.503-3.899-7.453-4.365c-1.132-7.081-7.263-12.352-14.489-12.352
					c-5.271,0-10.084,2.79-12.712,7.324c-1.429-0.677-3.002-1.032-4.591-1.032c-4.13,0-7.941,2.408-9.711,6.135
					c-0.592,1.247-0.061,2.738,1.186,3.331c1.247,0.593,2.738,0.061,3.331-1.186c0.946-1.992,2.985-3.279,5.194-3.279
					c0.972,0,1.933,0.249,2.778,0.719c1.018,0.566,2.192,0.695,3.309,0.361c1.121-0.334,2.078-1.126,2.626-2.172
					c1.681-3.208,4.973-5.201,8.59-5.201c4.89,0,9.019,3.662,9.604,8.518c0.239,1.98,1.787,3.512,3.762,3.727
					c1.845,0.2,3.499,1.116,4.657,2.578c1.162,1.466,1.675,3.308,1.444,5.188c-0.424,3.453-3.506,6.056-7.17,6.056h-16.41
					c-1.381,0-2.5,1.119-2.5,2.5s1.119,2.5,2.5,2.5h16.41c6.186,0,11.402-4.491,12.133-10.447
					C182.396,27.685,181.512,24.523,179.513,22z"/>
			</g>
		</g>
	</g>
</g>
<g id="Layer_13">
</g>
<g id="Layer_14">
</g>
<g id="Layer_15">
</g>
<g id="Layer_16">
</g>
<g id="Layer_17">
</g>
<g id="Layer_18">
</g>
<g id="Layer_19">
</g>
<g id="Layer_20">
</g>
<g id="Layer_21">
</g>
<g id="Layer_22">
</g>
<g id="Layer_23">
</g>
<g id="Layer_24">
</g>
<g id="Layer_25">
</g>
<g id="Layer_26">
</g>
<g id="Layer_27">
</g>
<g id="Layer_28">
</g>
<g id="Layer_29">
</g>
<g id="Layer_30">
</g>
<g id="Layer_31">
</g>
<g id="Layer_32">
</g>
<g id="Layer_33">
</g>
<g id="Layer_34">
</g>
<g id="Layer_35">
</g>
<g id="Layer_36">
</g>
<g id="Layer_37">
</g>
<g id="Layer_38">
</g>
<g id="Layer_39">
</g>
<g id="Layer_40">
</g>
<g id="Layer_41">
</g>
<g id="Layer_42">
</g>
<g id="Layer_43">
</g>
<g id="Layer_44">
</g>
<g id="Layer_45">
</g>
<g id="Layer_46">
</g>
<g id="Layer_47">
</g>
<g id="Layer_48">
</g>
<g id="Layer_49">
</g>
<g id="Layer_50">
</g>
<g id="Layer_51">
</g>
<g id="Layer_52">
</g>
<g id="Layer_53">
</g>
<g id="Layer_54">
</g>
<g id="Layer_55">
</g>
<g id="Layer_56">
</g>
<g id="Layer_57">
</g>
<g id="Layer_58">
</g>
<g id="Layer_59">
</g>
<g id="Layer_60">
</g>
<g id="Layer_61">
</g>
<g id="Layer_62">
</g>
<g id="Layer_63">
</g>
<g id="Layer_64">
</g>
<g id="Layer_65">
</g>
<g id="Layer_66">
</g>
<g id="Layer_67">
</g>
<g id="Layer_68">
</g>
<g id="Layer_69">
</g>
<g id="Layer_70">
</g>
<g id="Layer_71">
</g>
<g id="Layer_72">
</g>
<g id="Layer_73">
</g>
<g id="Layer_74">
</g>
<g id="Layer_75">
</g>
</svg>
